<svg xmlns="http://www.w3.org/2000/svg" viewBox="0 0 284 284">
  <style>
    .a-fill { fill: #000000; }
    @media (prefers-color-scheme: dark) {
      .a-fill { fill: #ffffff; }
    }
  </style>
  <g class="a-fill" transform="translate(9.381,0)">
    <g transform="translate(-125.037405,382.429979) scale(0.100000,-0.100000)">
<path d="M2383 3816 c-38 -12 -43 -22 -44 -86 -1 -63 -10 -95 -29 -95 -16 0
-38 -57 -39 -100 -2 -46 -12 -75 -27 -75 -12 0 -25 -35 -40 -107 -5 -25 -2
-33 16 -43 12 -6 23 -10 24 -8 10 17 23 99 19 122 -6 27 -4 28 20 22 24 -6 27
-3 38 36 7 24 11 58 10 76 -1 26 3 35 19 39 11 3 20 13 20 23 0 20 46 80 61
80 12 0 39 -65 50 -119 5 -25 18 -50 29 -58 11 -8 20 -25 20 -37 0 -32 26 -92
42 -99 7 -2 20 -33 27 -67 10 -45 19 -64 32 -67 12 -4 22 -22 30 -60 7 -31 21
-63 31 -72 19 -18 48 -92 48 -122 0 -11 4 -19 10 -19 13 0 46 -65 55 -110 4
-19 18 -45 31 -57 14 -12 24 -34 24 -48 0 -30 16 -65 38 -81 9 -6 21 -34 28
-62 7 -27 24 -61 37 -74 14 -14 27 -42 31 -68 4 -26 16 -52 30 -65 13 -12 26
-39 30 -64 3 -24 16 -52 29 -64 13 -12 31 -47 40 -79 10 -31 24 -59 32 -62 21
-8 19 -58 -5 -105 -17 -32 -20 -54 -18 -127 4 -112 23 -125 32 -22 8 99 8 98
23 98 23 0 73 -52 73 -76 0 -13 8 -28 18 -33 9 -5 25 -36 35 -69 9 -33 26 -70
37 -83 12 -12 23 -34 26 -48 14 -61 27 -92 44 -101 11 -6 23 -30 29 -61 7 -31
21 -61 35 -74 13 -12 26 -39 29 -61 4 -23 17 -52 29 -65 13 -14 29 -52 37 -87
8 -36 19 -62 26 -62 7 0 21 -26 31 -57 l19 -58 122 -3 122 -3 -4 49 c-5 60
-19 99 -44 121 -10 9 -24 42 -31 73 -8 37 -19 58 -29 61 -11 3 -22 24 -31 60
-9 39 -21 62 -37 72 -12 9 -23 24 -23 34 0 30 -28 99 -49 122 -10 11 -24 40
-30 63 -6 23 -19 51 -30 61 -12 10 -23 34 -26 54 -9 51 -23 83 -46 99 -10 7
-19 24 -19 37 0 35 -18 77 -40 92 -11 8 -23 35 -30 67 -8 39 -18 59 -36 70
-14 10 -24 26 -24 41 0 33 -17 74 -39 94 -10 9 -24 42 -31 73 -8 37 -19 58
-29 61 -11 3 -22 24 -31 60 -8 36 -21 62 -34 71 -14 9 -26 34 -35 75 -8 34
-19 61 -26 61 -11 0 -32 45 -50 107 -3 11 -12 23 -19 26 -7 3 -23 38 -36 79
-13 40 -31 79 -41 85 -9 7 -20 31 -24 53 -4 23 -18 54 -32 71 -14 17 -30 51
-35 77 -5 27 -17 53 -28 62 -11 8 -27 41 -35 74 -9 35 -24 65 -35 73 -11 8
-20 22 -20 31 0 32 -28 97 -43 100 -8 2 -20 26 -28 59 -7 33 -22 65 -35 76
-12 10 -25 36 -28 58 -9 59 -38 72 -152 73 -51 1 -106 -3 -121 -8z"/>
<path d="M2145 3283 c-4 -16 -8 -38 -11 -50 -2 -13 -11 -23 -19 -23 -18 0 -45
-51 -45 -85 0 -18 -6 -29 -18 -32 -10 -2 -29 -25 -43 -50 -13 -25 -34 -56 -46
-69 -13 -13 -23 -30 -23 -38 0 -8 -9 -21 -20 -29 -11 -7 -29 -34 -39 -58 -11
-25 -29 -53 -40 -63 -10 -10 -25 -31 -31 -47 -7 -16 -18 -29 -25 -29 -7 0 -20
-21 -30 -47 -10 -27 -27 -59 -39 -73 -12 -14 -28 -38 -34 -53 -7 -15 -18 -30
-26 -33 -8 -3 -23 -28 -32 -56 -10 -32 -23 -52 -35 -55 -11 -3 -19 -11 -19
-19 0 -22 -33 -86 -57 -110 -13 -13 -23 -32 -23 -42 0 -10 -13 -32 -28 -49
-18 -18 -31 -46 -36 -72 -4 -29 -12 -45 -25 -48 -19 -5 -41 -55 -41 -96 0 -15
-9 -36 -21 -48 -21 -21 -42 -108 -58 -250 -5 -36 -13 -75 -20 -86 -14 -27 -14
-76 -1 -89 6 -6 15 -35 20 -65 22 -121 29 -143 49 -158 11 -9 25 -30 32 -48 6
-19 25 -40 45 -52 19 -11 34 -25 34 -30 0 -14 61 -46 82 -42 9 1 21 -6 27 -17
11 -20 71 -42 117 -42 16 0 49 -10 74 -21 39 -18 66 -20 215 -21 147 0 179 3
234 21 35 12 78 21 94 21 37 0 89 15 139 41 20 10 48 19 62 19 27 0 96 36 96
51 0 5 12 12 27 15 14 4 46 21 71 38 24 17 51 36 60 41 35 21 192 173 192 185
0 6 6 10 14 10 8 0 18 9 21 21 4 12 23 39 42 60 24 26 37 52 40 80 4 28 12 43
24 46 26 7 45 123 25 161 l-14 27 -11 -27 c-6 -15 -13 -50 -17 -78 -5 -39 -10
-50 -25 -50 -12 0 -25 -16 -38 -46 -11 -25 -33 -59 -48 -75 -53 -55 -78 -83
-88 -100 -19 -32 -158 -143 -206 -165 -27 -13 -49 -27 -49 -32 0 -5 -30 -20
-67 -32 -38 -13 -77 -29 -88 -35 -54 -35 -368 -64 -485 -45 -41 6 -95 15 -120
19 -29 4 -55 16 -72 34 -15 15 -38 27 -52 27 -16 0 -32 9 -42 25 -9 13 -25 27
-36 31 -11 3 -26 21 -34 40 -8 19 -21 34 -29 34 -13 0 -22 23 -41 105 -3 17
-14 41 -23 55 -23 35 -23 251 0 295 9 17 22 71 29 120 7 52 20 101 30 116 10
15 25 59 34 100 10 48 22 79 35 89 11 8 25 35 31 60 6 25 22 55 36 68 14 13
27 40 30 63 4 25 18 53 35 70 15 16 31 45 35 64 4 21 16 42 29 51 13 8 28 34
35 58 7 25 23 54 36 65 13 11 24 27 24 34 0 8 14 33 30 56 17 22 37 59 46 81
9 22 20 40 25 40 11 0 39 55 45 88 6 29 11 37 25 37 11 0 49 74 49 97 0 10 7
18 15 18 8 0 18 12 21 28 4 15 13 35 19 45 20 29 7 57 -26 57 -23 0 -30 -5
-34 -27z"/>
</g>
  </g>
</svg>